<?xml version="1.0" encoding="UTF-8"?>
<svg width="190px" height="300px" viewBox="0 0 190 300" version="1.1" xmlns="http://www.w3.org/2000/svg" xmlns:xlink="http://www.w3.org/1999/xlink">
    <!-- Generator: Sketch 53.2 (72643) - https://sketchapp.com -->
    <title>jajang_irawan_logo_light</title>
    <desc>Created with Sketch.</desc>
    <g id="Page-1" stroke="none" stroke-width="1" fill="none" fill-rule="evenodd" opacity="0.5">
        <path d="M14,210 L90,210 L90,300 L14,300 C6.2680135,300 0,293.731986 0,286 L0,224 C0,216.268014 6.2680135,210 14,210 Z M100,100 L190,100 L190,286 C190,293.731986 183.731986,300 176,300 L100,300 L100,100 Z M114,0 L176,0 C183.731986,0 190,6.2680135 190,14 L190,90 L100,90 L100,14 C100,6.2680135 106.268014,0 114,0 Z" id="jajang_irawan_logo_light" fill="#FFFFFF"></path>
    </g>
</svg>