<svg height="26" viewBox="0 0 110 26" width="110" xmlns="http://www.w3.org/2000/svg"><g fill="#3a525f" fill-rule="evenodd"><path d="m101.739121 22.5460542c.657758.4212876 1.801551.7583177 2.773793.7583177 2.001724 0 3.202758-1.292121 3.202758-3.2019581 0-1.741322-1.029482-2.8084116-2.545172-3.9318452-1.515517-1.0393484-3.631552-2.8087563-3.631552-5.2522243 0-2.86475564 2.030345-4.97119361 5.09-4.97119361 1.201035 0 2.259138.36511591 2.716552.70214599l-.543276 1.85366541c-.486207-.33720238-1.286896-.64597431-2.287586-.64597431-1.887414 0-2.773793 1.40429198-2.773793 2.69624062 0 1.8817512 1.000862 2.6119831 2.830862 3.9039317 2.316379 1.6008928 3.34569 3.3423872 3.34569 5.4488252 0 3.2577851-2.344828 5.3082237-5.404483 5.3082237-1.315345 0-2.716552-.4212876-3.26-.8144894z"/><path d="m94.4190517 15.4683192c.2574138.0561717.4860345.0842576.8579311.0842576 2.1731034 0 3.6315517-1.404292 3.6315517-4.0724468 0-1.93809523-.8293104-3.67941728-3.2598276-3.67941728-.5148276 0-.9437931.05617168-1.2296552.1404292zm-2.2018965-9.07189846c.8865517-.22468672 1.9444827-.36511592 3.2027586-.36511592 1.772931 0 3.2598276.4212876 4.2606896 1.40429198.9436206.89891918 1.4298276 2.27495301 1.4298276 3.904104 0 1.7413221-.428965 2.9209273-1.1724138 3.8758459-1.0581034 1.404292-2.8310344 2.1064379-4.5467241 2.1064379-.3717241 0-.6577586 0-.9722414-.0280858v7.7516917h-2.2018965z"/><path d="m84.4681207 15.4683192c.2574138.0561717.4860345.0842576.857931.0842576 2.1732759 0 3.6315517-1.404292 3.6315517-4.0724468 0-1.93809523-.8293103-3.67941728-3.2598275-3.67941728-.5148276 0-.9437931.05617168-1.2296552.1404292zm-2.2018966-9.07189846c.8865518-.22468672 1.9444828-.36511592 3.2027587-.36511592 1.772931 0 3.2598275.4212876 4.2606896 1.40429198.9436207.89891918 1.4298276 2.27495301 1.4298276 3.904104 0 1.7413221-.4289655 2.9209273-1.1724138 3.8758459-1.0581034 1.404292-2.8310345 2.1064379-4.5467241 2.1064379-.3717242 0-.6577587 0-.9722414-.0280858v7.7516917h-2.2018966z"/><path d="m77.5766207 17.6309633-1.0008621-4.8028508c-.2860345-1.3481203-.5432758-2.92092735-.7720689-4.32521933h-.1143104c-.2287931 1.43237782-.5148276 3.06152883-.772069 4.32521933l-1.000862 4.8028508zm-3.9748276 1.7413221-1.2867241 5.6733396h-2.1160345l4.4036207-18.9300282h2.4306896l4.2893104 18.9300282h-2.1732759l-1.2867241-5.6733396z"/><path d="m61.2921379 21.8978055c.6346552.4035401 1.7544828.9170112 2.9117242.9170112 1.6425862 0 2.6503448-.9904135 2.6503448-2.5677005 0-1.3570802-.4851724-2.2740915-2.3143103-3.4845394-2.3518966-1.5037125-3.6210345-3.0075972-3.6210345-5.0618265 0-2.8609649 2.1651724-4.91502192 4.9648276-4.91502192 1.4186206 0 2.5010344.47677005 3.2475862.91701128l-.7837931 2.12745927c-.672069-.44024122-1.4558621-.77020676-2.389138-.77020676-1.5677586 0-2.3517241 1.10034463-2.3517241 2.23739033 0 1.210448.447931 1.8705514 2.2398276 3.0809994 2.0903448 1.3205514 3.732931 2.9345395 3.732931 5.3919643 0 3.5579417-2.4637931 5.2818609-5.412931 5.2818609-1.3437931 0-2.7996552-.4033678-3.5836207-1.0269424z"/><path d="m52.4456034 21.8978055c.6346552.4035401 1.7544828.9170112 2.9117242.9170112 1.6424138 0 2.6503448-.9904135 2.6503448-2.5677005 0-1.3570802-.4851724-2.2740915-2.3143103-3.4845394-2.3518966-1.5037125-3.6210345-3.0075972-3.6210345-5.0618265 0-2.8609649 2.1651724-4.91502192 4.9648276-4.91502192 1.4184482 0 2.5010345.47677005 3.2477586.91701128l-.7839655 2.12745927c-.6718966-.44024122-1.4558621-.77020676-2.389138-.77020676-1.567931 0-2.3517241 1.10034463-2.3517241 2.23739033 0 1.210448.447931 1.8705514 2.2396552 3.0809994 2.0905172 1.3205514 3.7331034 2.9345395 3.7331034 5.3919643 0 3.5579417-2.4637931 5.2818609-5.4127586 5.2818609-1.3439655 0-2.7998276-.4033678-3.5837931-1.0269424z"/><path d="m49.0116897 14.1216635c.0746551-3.5577694-1.3065518-5.13505636-2.6877587-5.13505636-1.8663793 0-2.8370689 2.71416036-2.9489655 5.13505636zm-5.674138 2.0907582c.0374138 5.4286654 2.2025862 6.6024123 4.2929311 6.6024123 1.2318965 0 2.2770689-.2934368 2.9863793-.6969769l.447931 2.0907582c-1.007931.5501723-2.5384483.843609-3.9568965.843609-4.3301725 0-6.57-3.4845395-6.57-8.9132049 0-5.7586309 2.4637931-9.35327379 6.0846551-9.35327379 3.6956897 0 5.1515517 3.81467729 5.1515517 7.84938909 0 .6602757 0 1.1372181-.0374137 1.577287z"/><path d="m28.1446207 11.6642043c0-2.09075818-.112069-3.15457397-.1493104-4.58505643h2.5010345l.1493104 2.12745927h.0746551c.7839656-1.43048245 2.2398276-2.42072368 4.1436207-2.42072368 2.5010345 0 4.3675862 1.83385025 4.3675862 6.12546994v11.920802h-2.8743103v-11.444032c0-2.0907581-.4106897-4.21821738-2.5012069-4.21821738-1.1944828 0-2.3517241.99041348-2.725 2.89766608-.0746552.4402412-.112069.9904135-.112069 1.5772869v11.1872964h-2.8743103z"/><path d="m16.9835517 23.1082362 5.7113793-10.9672619c.4853449-.9170113 1.0453449-1.8338502 1.4558621-2.64093044v-.07340226h-6.457931v-2.34749373h9.6310345v1.87072368l-5.6367242 10.82045735c-.4853448.9170113-1.0453448 1.8340226-1.4558621 2.6411028v.07323h7.0925863v2.3474937h-10.3403449z"/><path d="m13.475 24.8321898h2.8743103v-17.75300747h-2.8743103zm3.0982759-22.33789155c.0374138 1.10034461-.6718966 1.83402255-1.7544828 1.83402255-.9331034 0-1.6424138-.73367794-1.6424138-1.83402255 0-1.10051692.7465517-1.83402256 1.6798276-1.83402256 1.0451724 0 1.717069.73350564 1.717069 1.83402256z"/><path d="m2.87437931 22.5946789c.33603448.0734022.8212069.1468045 1.45586207.1468045 2.98637931 0 4.92758621-1.7239192 4.92758621-4.9150219 0-3.4113096-2.42655173-5.0251253-5.11431035-5.0619988h-1.26913793zm0-11.9942043h1.30655172c2.35172414 0 4.36758621-1.76062028 4.36758621-4.3648496 0-2.27426378-1.08258621-4.03471178-4.14362069-4.03471178-.67189655 0-1.19448276.07322995-1.53051724.18333333zm-2.87431034-10.12365286c1.19448275-.29343671 2.61293103-.47677005 4.21810344-.47677005 2.27724138 0 4.21827587.47677005 5.56224138 1.72391917 1.08241381.99041354 1.64241381 2.45759712 1.64241381 4.21804512 0 2.53099937-1.4184483 4.54835522-3.88224139 5.50206762v.0734023c2.91172409.7702068 4.66620689 3.0809994 4.66620689 6.3089756 0 2.054057-.6718965 3.7045739-1.7918965 4.9150219-1.41844832 1.5771147-3.77017246 2.2373903-6.64465522 2.2373903-1.86637931 0-2.98637931-.109931-3.77017241-.2567355z"/></g></svg>